<svg width="366" height="64" viewBox="0 0 366 64" fill="none" xmlns="http://www.w3.org/2000/svg">
<path d="M4.34509e-06 50.16L4.34509e-06 2L48.4974 2L4.34509e-06 50.16Z" fill="#F87474"/>
<path d="M55.7774 9.84V58H7.28L55.7774 9.84Z" fill="#65BFF1"/>
<path d="M33.6 2H55.8442V24.4L33.6 2Z" fill="#6B6B6B"/>
<path d="M22.2441 58H-1.35303e-05L-1.35303e-05 35.6L22.2441 58Z" fill="#6B6B6B"/>
<path d="M75.4121 12.752V13.728H85.1241V12.752H75.4121ZM76.6761 15.28C77.5081 15.792 78.5641 16.56 79.0761 17.072L79.7481 16.24C79.2201 15.744 78.1481 15.024 77.3161 14.544L76.6761 15.28ZM81.8601 11.808C82.4521 12.144 83.1721 12.672 83.5241 13.024L84.1481 12.4C83.7801 12.032 83.0441 11.552 82.4521 11.232L81.8601 11.808ZM76.5961 13.2C76.4681 15.296 76.0841 17.344 74.5001 18.464C74.7561 18.64 75.0761 19.008 75.2361 19.248C77.0281 17.936 77.5081 15.68 77.6841 13.2H76.5961ZM79.4761 4.576C79.5081 12.752 80.5161 19.296 83.7321 19.312C84.8041 19.312 85.1561 18.784 85.3641 16.976C85.1081 16.88 84.7401 16.672 84.5161 16.448C84.4361 17.904 84.2761 18.272 83.8121 18.272C81.6361 18.272 80.4681 12.544 80.5481 4.576H79.4761ZM83.0601 13.984C82.1641 15.968 80.3401 17.584 77.9401 18.512C78.1641 18.704 78.4681 19.072 78.6121 19.28C81.0761 18.256 83.0441 16.576 84.0841 14.368L83.0601 13.984ZM80.6281 7.36C81.3161 7.888 82.1161 8.656 82.4841 9.184L82.9961 8.432C82.6281 7.92 81.8281 7.184 81.1241 6.704L80.6281 7.36ZM83.6201 9.296C84.0361 10.048 84.4361 11.056 84.5801 11.68L85.3641 11.312C85.2361 10.704 84.8041 9.744 84.3561 9.008L83.6201 9.296ZM80.8361 10.416L81.0121 11.344C82.0681 11.248 83.2841 11.136 84.5641 11.008V10.176C83.1561 10.272 81.8281 10.352 80.8361 10.416ZM82.4841 4.72C82.2121 5.504 81.6841 6.656 81.2841 7.36L81.9721 7.68C82.4201 7.024 82.9641 5.984 83.4121 5.088L82.4841 4.72ZM83.7961 6.32C83.1881 7.616 82.1001 9.44 81.2521 10.544L81.9241 10.928C82.7881 9.84 83.8761 8.128 84.6921 6.752L83.7961 6.32ZM75.2041 7.36C75.8921 7.888 76.6921 8.656 77.0601 9.184L77.5721 8.432C77.2201 7.92 76.4041 7.184 75.7161 6.704L75.2041 7.36ZM77.9881 9.392C78.3721 10.16 78.7241 11.152 78.8361 11.776L79.6201 11.44C79.5241 10.832 79.1401 9.856 78.7241 9.12L77.9881 9.392ZM75.2681 10.592L75.4441 11.536C76.5001 11.44 77.7321 11.328 79.0121 11.2V10.336C77.5881 10.448 76.2761 10.544 75.2681 10.592ZM77.0761 4.72C76.7881 5.504 76.2761 6.672 75.8761 7.392L76.5641 7.696C76.9961 7.04 77.5401 5.984 78.0041 5.104L77.0761 4.72ZM78.3881 6.32C77.7481 7.664 76.6121 9.552 75.7161 10.688L76.4041 11.056C77.3161 9.952 78.4361 8.176 79.2681 6.752L78.3881 6.32ZM70.6601 8.032V9.152H75.5081V8.032H70.6601ZM72.6921 4.56V19.264H73.7801V4.56H72.6921ZM72.6441 8.704C72.2601 10.976 71.3001 13.776 70.3241 15.216C70.5161 15.472 70.7881 15.92 70.9161 16.208C71.9721 14.608 72.9161 11.456 73.3641 8.928L72.6441 8.704ZM73.7001 9.76L73.2041 10.224C73.5881 10.848 74.5961 12.736 74.9161 13.536L75.5241 12.656C75.2681 12.192 74.0201 10.192 73.7001 9.76ZM91.7801 7.584V8.688H101.012V7.584H91.7801ZM91.6841 12.256V13.312H96.6601V12.256H91.6841ZM94.7881 9.488V17.568H95.7481V9.488H94.7881ZM98.3401 5.392C98.9001 5.92 99.5081 6.688 99.7801 7.2L100.612 6.672C100.324 6.176 99.6841 5.44 99.1081 4.928L98.3401 5.392ZM96.6441 4.576C96.7241 12.272 97.7001 19.232 99.8121 19.232C100.74 19.232 101.092 18.496 101.252 16.32C100.98 16.208 100.612 15.984 100.388 15.728C100.324 17.376 100.196 18.128 99.9401 18.128C98.9481 18.128 97.7161 12.016 97.7641 4.576H96.6441ZM92.6601 9.504V12.32C92.6601 14.256 92.4841 16.4 90.9801 18.08C91.2201 18.224 91.6041 18.512 91.7801 18.72C93.3961 16.88 93.6041 14.512 93.6041 12.336V9.504H92.6601ZM99.9241 9.952C99.1241 13.728 97.5241 16.688 94.8841 18.48C95.1241 18.64 95.5561 18.992 95.7321 19.168C98.3561 17.216 100.036 14.176 100.948 10.128L99.9241 9.952ZM86.8201 7.952V9.088H91.2201V7.952H86.8201ZM88.6761 4.56V19.264H89.7961V4.56H88.6761ZM88.7721 8.688C88.3721 10.976 87.3641 13.776 86.3561 15.2C86.5641 15.504 86.8521 16 86.9801 16.32C88.0361 14.704 89.0281 11.504 89.4921 8.944L88.7721 8.688ZM89.7481 9.488L89.1721 9.952C89.5401 10.512 90.4201 12.176 90.7241 12.864L91.4121 11.968C91.1561 11.568 90.0361 9.856 89.7481 9.488ZM105.492 9.968V11.024H113.412V9.968H105.492ZM102.804 13.616V14.736H116.948V13.616H102.804ZM109.236 12.448V17.824C109.236 18.064 109.156 18.144 108.836 18.16C108.516 18.176 107.428 18.176 106.196 18.144C106.388 18.464 106.628 18.96 106.708 19.296C108.164 19.296 109.092 19.28 109.668 19.104C110.276 18.928 110.468 18.576 110.468 17.856V12.448H109.236ZM113.044 9.968V10.208C112.292 11.024 110.756 12.08 109.412 12.656C109.62 12.832 109.94 13.152 110.084 13.36C111.604 12.704 113.284 11.6 114.372 10.496L113.604 9.904L113.348 9.968H113.044ZM103.124 7.232V10.8H104.26V8.32H115.492V10.8H116.676V7.232H103.124ZM114.564 4.672C114.116 5.52 113.3 6.704 112.66 7.456L113.604 7.856C114.276 7.152 115.14 6.08 115.812 5.088L114.564 4.672ZM104.212 5.232C104.804 5.92 105.444 6.88 105.7 7.488L106.772 6.976C106.5 6.336 105.844 5.424 105.22 4.752L104.212 5.232ZM108.324 4.88C108.852 5.664 109.38 6.72 109.572 7.392L110.676 6.96C110.484 6.288 109.908 5.248 109.364 4.496L108.324 4.88ZM120.804 12.672V19.328H121.988V13.632H129.796V19.328H131.028V12.672H120.804ZM121.428 15.168V16.128H130.18V15.168H121.428ZM121.476 17.744V18.704H130.18V17.744H121.476ZM125.188 11.168C125.028 11.696 124.676 12.512 124.372 13.056L125.348 13.312C125.684 12.832 126.1 12.112 126.452 11.408L125.188 11.168ZM118.996 5.392V6.352H124.324V5.392H118.996ZM124.004 5.392V10.688C124.004 10.848 123.956 10.912 123.748 10.912C123.556 10.928 122.916 10.928 122.18 10.912C122.324 11.168 122.468 11.536 122.516 11.808C123.54 11.808 124.18 11.808 124.596 11.648C124.98 11.488 125.108 11.216 125.108 10.688V5.392H124.004ZM126.116 5.392V6.352H131.7V5.392H126.116ZM131.156 5.392V10.688C131.156 10.88 131.092 10.912 130.884 10.928C130.676 10.944 129.972 10.944 129.22 10.912C129.364 11.184 129.508 11.584 129.556 11.856C130.628 11.872 131.316 11.856 131.732 11.696C132.164 11.52 132.276 11.248 132.276 10.688V5.392H131.156ZM125.748 10.112L126.196 11.04C127.428 10.608 128.996 10 130.468 9.44L130.292 8.56C128.612 9.152 126.916 9.744 125.748 10.112ZM126.564 7.232C127.332 7.632 128.26 8.272 128.692 8.768L129.348 7.968C128.9 7.488 127.956 6.88 127.188 6.512L126.564 7.232ZM118.612 10.432L119.076 11.424C120.244 10.96 121.7 10.352 123.108 9.776L122.916 8.88C121.316 9.472 119.716 10.08 118.612 10.432ZM119.668 7.216C120.436 7.648 121.332 8.32 121.764 8.8L122.42 8.016C121.988 7.536 121.06 6.912 120.308 6.512L119.668 7.216ZM141.124 7.2L141.14 8.496C142.884 8.688 145.988 8.688 147.7 8.496V7.2C146.116 7.44 142.868 7.504 141.124 7.2ZM141.748 13.728L140.596 13.616C140.42 14.384 140.34 14.96 140.34 15.488C140.34 16.992 141.54 17.888 144.212 17.888C145.876 17.888 147.22 17.76 148.212 17.552L148.18 16.208C146.9 16.512 145.652 16.64 144.228 16.64C142.036 16.64 141.524 15.92 141.524 15.184C141.524 14.752 141.604 14.304 141.748 13.728ZM138.084 5.968L136.66 5.856C136.644 6.208 136.596 6.608 136.548 6.976C136.356 8.304 135.828 11.04 135.828 13.392C135.828 15.568 136.1 17.408 136.42 18.544L137.556 18.464C137.54 18.288 137.524 18.064 137.508 17.904C137.508 17.712 137.54 17.408 137.588 17.184C137.732 16.416 138.324 14.736 138.724 13.6L138.052 13.072C137.78 13.728 137.412 14.688 137.14 15.408C137.044 14.624 136.996 13.952 136.996 13.184C136.996 11.376 137.492 8.528 137.796 7.04C137.86 6.752 137.988 6.24 138.084 5.968ZM158.5 5.44H156.98C157.044 5.744 157.092 6.448 157.108 7.04C157.108 7.728 157.124 9.04 157.124 9.968C157.124 11.6 157.316 14.704 157.316 15.888C157.316 16.992 156.74 17.552 155.572 17.552C154.02 17.552 153.124 17.056 153.124 16.176C153.124 15.28 154.068 14.72 155.732 14.72C158.532 14.72 161.156 16.288 162.756 17.888L163.524 16.688C161.892 15.2 159.044 13.6 155.876 13.6C153.108 13.6 151.86 14.768 151.86 16.224C151.86 18.048 153.476 18.736 155.7 18.736C157.828 18.736 158.628 17.616 158.628 16.32C158.628 14.912 158.372 11.712 158.372 9.968C158.372 8.864 158.372 7.76 158.372 7.04C158.388 6.56 158.436 5.792 158.5 5.44ZM157.668 8.672V9.856C158.82 9.856 161.428 9.744 163.156 9.584L163.108 8.384C161.38 8.592 158.772 8.672 157.668 8.672ZM169.168 6.224L169.2 7.536C169.552 7.488 169.904 7.472 170.272 7.44C171.104 7.392 174.304 7.264 175.152 7.216C174.352 7.936 172.336 9.616 171.44 10.352C170.528 11.136 168.464 12.864 167.136 13.952L168.064 14.88C170.08 12.816 171.52 11.696 174.176 11.696C176.272 11.696 177.776 12.864 177.776 14.448C177.776 16.448 176.064 17.568 173.344 17.568C172.08 17.568 171.2 17.104 171.2 16.32C171.2 15.76 171.76 15.312 172.496 15.312C173.776 15.312 174.56 16.288 174.656 17.648L175.808 17.456C175.696 15.84 174.624 14.336 172.496 14.336C171.024 14.336 170.032 15.328 170.032 16.416C170.032 17.76 171.36 18.704 173.536 18.704C176.928 18.704 179.056 17.024 179.056 14.448C179.056 12.288 177.152 10.704 174.496 10.704C173.776 10.704 173.008 10.784 172.272 11.024C173.52 10 175.696 8.128 176.48 7.52C176.784 7.28 177.104 7.072 177.392 6.88L176.656 5.936C176.48 6 176.256 6.032 175.776 6.08C174.928 6.16 171.136 6.272 170.288 6.272C169.968 6.272 169.52 6.256 169.168 6.224ZM187.856 11.504V12.608H196.576V11.504H187.856ZM189.424 7.568V8.672H196.016V7.568H189.424ZM191.696 4.576V19.28H192.864V4.576H191.696ZM191.248 12.016C190.368 14.224 188.672 16.464 186.944 17.568C187.216 17.776 187.584 18.192 187.776 18.496C189.536 17.2 191.248 14.816 192.192 12.32L191.248 12.016ZM193.36 12.096L192.48 12.384C193.296 14.64 194.736 17.072 196.144 18.368C196.352 18.048 196.752 17.632 197.024 17.424C195.6 16.32 194.128 14.144 193.36 12.096ZM189.312 5.312C189.024 7.264 188.512 9.184 187.664 10.432C187.952 10.56 188.432 10.864 188.64 11.04C189.488 9.68 190.096 7.648 190.416 5.504L189.312 5.312ZM182.224 7.664V8.768H187.76V7.664H182.224ZM184.528 4.56V19.264H185.696V4.56H184.528ZM184.512 8.384C184.032 10.656 182.96 13.44 181.856 14.864C182.08 15.152 182.368 15.68 182.512 16.016C183.632 14.4 184.736 11.232 185.232 8.64L184.512 8.384ZM185.648 9.232L185.072 9.696C185.488 10.368 186.608 12.416 186.96 13.248L187.68 12.384C187.392 11.888 186.016 9.712 185.648 9.232ZM202.368 6.192V7.28H212.56V6.192H202.368ZM202.576 9.904V19.024H203.696V10.976H211.28V18.928H212.432V9.904H202.576ZM205.376 6.352V10.672H206.512V6.352H205.376ZM208.352 6.352V10.672H209.504V6.352H208.352ZM203.088 16.912V17.968H212.096V16.912H203.088ZM205.472 10.64V17.712H206.512V10.64H205.472ZM208.352 10.64V17.712H209.392V10.64H208.352ZM201.408 4.608C200.56 6.992 199.152 9.344 197.648 10.864C197.872 11.152 198.208 11.76 198.32 12.032C199.968 10.256 201.504 7.6 202.496 4.96L201.408 4.608ZM199.824 8.768V19.28H200.96V7.664L200.944 7.648L199.824 8.768ZM220.832 11.424V17.76C220.832 18 220.752 18.064 220.464 18.08C220.144 18.096 219.056 18.112 217.936 18.064C218.112 18.4 218.32 18.896 218.4 19.232C219.808 19.232 220.736 19.216 221.312 19.04C221.888 18.864 222.08 18.512 222.08 17.792V11.424H220.832ZM215.712 5.44V6.544H225.808V5.44H215.712ZM225.36 5.44V5.696C224.464 6.736 222.592 8.144 221.104 8.928C221.328 9.12 221.696 9.488 221.856 9.744C223.504 8.832 225.488 7.376 226.816 6.032L225.952 5.36L225.68 5.44H225.36ZM214.208 10.544V11.696H227.6V10.544H214.208ZM217.904 8.4C219.808 9.216 222.416 10.432 223.728 11.152L224.384 10.128C223.008 9.424 220.384 8.272 218.528 7.52L217.904 8.4ZM227.184 10.544V10.768C226.544 11.968 225.552 13.36 224.736 14.224L225.744 14.816C226.72 13.856 227.744 12.304 228.608 10.896L227.648 10.464L227.424 10.544H227.184ZM235.392 9.312H237.936V11.312H235.392V9.312ZM235.392 12.304H237.936V14.304H235.392V12.304ZM235.392 6.352H237.936V8.32H235.392V6.352ZM234.352 5.28V15.376H239.024V5.28H234.352ZM237.184 16.16C237.84 16.944 238.624 18.048 238.976 18.72L239.936 18.128C239.568 17.472 238.752 16.416 238.096 15.648L237.184 16.16ZM235.024 15.712C234.544 16.8 233.712 17.92 232.864 18.672C233.136 18.832 233.6 19.152 233.824 19.344C234.672 18.528 235.584 17.248 236.128 16L235.024 15.712ZM243.008 4.576V17.792C243.008 18.064 242.912 18.144 242.64 18.144C242.384 18.16 241.536 18.176 240.592 18.144C240.752 18.464 240.896 18.976 240.96 19.28C242.272 19.28 243.024 19.264 243.488 19.056C243.936 18.864 244.128 18.528 244.128 17.776V4.576H243.008ZM240.224 6.224V15.376H241.28V6.224H240.224ZM230.656 5.6C231.552 6.048 232.656 6.784 233.168 7.328L233.888 6.352C233.344 5.84 232.24 5.152 231.344 4.736L230.656 5.6ZM229.952 9.904C230.896 10.32 232.032 10.992 232.592 11.488L233.28 10.512C232.72 10.016 231.568 9.392 230.624 9.024L229.952 9.904ZM230.288 18.448L231.36 19.088C232.064 17.6 232.864 15.632 233.472 13.968L232.512 13.328C231.856 15.12 230.944 17.216 230.288 18.448ZM256.88 10.656V6.864C256.88 6.24 256.944 5.728 256.96 5.568H255.504C255.536 5.712 255.584 6.24 255.584 6.864V10.752C255.584 15.248 254.144 16.624 251.232 17.728L252.304 18.752C255.952 17.104 256.88 14.912 256.88 10.656ZM251.104 5.664H249.68C249.728 6.032 249.76 6.48 249.76 6.816V12.688C249.76 13.296 249.696 13.984 249.68 14.128H251.104C251.088 13.984 251.04 13.28 251.04 12.688V6.816C251.04 6.272 251.088 5.808 251.104 5.664ZM246.432 8.768V10.144C246.608 10.144 247.328 10.096 248.032 10.096H258.64C259.344 10.096 259.92 10.128 260.096 10.144V8.784C259.872 8.816 259.344 8.88 258.624 8.88H248.032C247.36 8.88 246.576 8.784 246.432 8.768ZM262.976 11.072V12.64C263.488 12.608 264.336 12.576 265.216 12.576C266.4 12.576 272.784 12.576 274 12.576C274.704 12.576 275.376 12.624 275.712 12.64V11.072C275.344 11.104 274.784 11.168 273.984 11.168C272.8 11.168 266.384 11.168 265.216 11.168C264.304 11.168 263.472 11.12 262.976 11.072ZM289.008 5.472L288.16 5.84C288.592 6.448 289.12 7.408 289.44 8.048L290.304 7.664C289.984 7.008 289.408 6.048 289.008 5.472ZM290.752 4.832L289.92 5.2C290.368 5.792 290.896 6.704 291.232 7.392L292.096 7.008C291.792 6.416 291.184 5.424 290.752 4.832ZM281.824 6H280.336C280.4 6.384 280.432 6.912 280.432 7.296C280.432 8.16 280.432 14.56 280.432 16.096C280.432 17.408 281.12 17.968 282.336 18.192C283.008 18.304 283.952 18.336 284.912 18.336C286.656 18.336 289.056 18.224 290.448 18.016V16.544C289.104 16.896 286.656 17.056 284.96 17.056C284.176 17.056 283.36 17.024 282.848 16.928C282.08 16.784 281.728 16.576 281.728 15.744C281.728 14.592 281.728 8.16 281.728 7.296C281.728 6.848 281.776 6.384 281.824 6ZM281.136 11.056L281.152 12.384C283.12 11.888 286.288 10.96 288.272 10.16C288.752 9.968 289.328 9.712 289.792 9.52L289.232 8.24C288.768 8.528 288.304 8.752 287.824 8.976C285.968 9.76 283.072 10.64 281.136 11.056ZM306.144 7.312L305.344 6.688C305.088 6.768 304.656 6.816 304.144 6.816C303.536 6.816 298.592 6.816 297.968 6.816C297.472 6.816 296.56 6.752 296.352 6.72V8.16C296.528 8.144 297.392 8.08 297.968 8.08C298.512 8.08 303.632 8.08 304.208 8.08C303.792 9.408 302.624 11.312 301.536 12.544C299.888 14.368 297.536 16.288 294.944 17.28L295.968 18.352C298.496 17.2 300.784 15.296 302.576 13.296C303.904 11.824 305.12 9.584 305.76 8C305.84 7.792 306.048 7.44 306.144 7.312ZM302.784 12.464L301.872 13.36C303.6 14.88 305.472 16.928 306.624 18.448L307.728 17.472C306.64 16.144 304.512 13.904 302.784 12.464Z" fill="#424242"/>
<path d="M84.3097 34.2756C84.196 33.1297 83.7083 32.2396 82.8466 31.6051C81.9848 30.9706 80.8153 30.6534 79.3381 30.6534C78.3343 30.6534 77.4867 30.7955 76.7955 31.0795C76.1042 31.3542 75.5739 31.7377 75.2045 32.2301C74.8447 32.7225 74.6648 33.2812 74.6648 33.9062C74.6458 34.4271 74.7547 34.8816 74.9915 35.2699C75.2377 35.6581 75.5739 35.9943 76 36.2784C76.4261 36.553 76.9186 36.7945 77.4773 37.0028C78.036 37.2017 78.6326 37.3722 79.267 37.5142L81.8807 38.1392C83.1496 38.4233 84.3144 38.8021 85.375 39.2756C86.4356 39.7491 87.3542 40.3314 88.1307 41.0227C88.9072 41.714 89.5085 42.5284 89.9347 43.4659C90.3703 44.4034 90.5928 45.4782 90.6023 46.6903C90.5928 48.4706 90.1383 50.0142 89.2386 51.321C88.3485 52.6184 87.0606 53.6269 85.375 54.3466C83.6989 55.0568 81.6771 55.4119 79.3097 55.4119C76.9612 55.4119 74.9157 55.0521 73.1733 54.3324C71.4403 53.6127 70.0862 52.5473 69.1108 51.1364C68.1449 49.7159 67.6383 47.9593 67.5909 45.8665H73.5426C73.6089 46.8419 73.8883 47.6562 74.3807 48.3097C74.8826 48.9536 75.5502 49.4413 76.3835 49.7727C77.2263 50.0947 78.178 50.2557 79.2386 50.2557C80.2803 50.2557 81.1847 50.1042 81.9517 49.8011C82.7282 49.4981 83.3295 49.0767 83.7557 48.5369C84.1818 47.9972 84.3949 47.3769 84.3949 46.6761C84.3949 46.0227 84.2008 45.4735 83.8125 45.0284C83.4337 44.5833 82.875 44.2045 82.1364 43.892C81.4072 43.5795 80.5123 43.2955 79.4517 43.0398L76.2841 42.2443C73.8314 41.6477 71.8949 40.715 70.4744 39.446C69.054 38.1771 68.3485 36.4678 68.358 34.3182C68.3485 32.5568 68.8172 31.018 69.7642 29.7017C70.7206 28.3854 72.0322 27.358 73.6989 26.6193C75.3655 25.8807 77.2595 25.5114 79.3807 25.5114C81.5398 25.5114 83.4242 25.8807 85.0341 26.6193C86.6534 27.358 87.9129 28.3854 88.8125 29.7017C89.7121 31.018 90.1761 32.5426 90.2045 34.2756H84.3097ZM106.231 33.1818V37.7273H93.0916V33.1818H106.231ZM96.0746 27.9545H102.126V48.2955C102.126 48.8542 102.211 49.2898 102.381 49.6023C102.552 49.9053 102.789 50.1184 103.092 50.2415C103.404 50.3646 103.764 50.4261 104.171 50.4261C104.455 50.4261 104.739 50.4025 105.023 50.3551C105.308 50.2983 105.525 50.2557 105.677 50.2273L106.629 54.7301C106.326 54.8248 105.899 54.9337 105.35 55.0568C104.801 55.1894 104.133 55.2699 103.347 55.2983C101.889 55.3551 100.611 55.161 99.5121 54.7159C98.4231 54.2708 97.5755 53.5795 96.9695 52.642C96.3634 51.7045 96.0651 50.5208 96.0746 49.0909V27.9545ZM119.796 55.4261C117.59 55.4261 115.682 54.9574 114.072 54.0199C112.471 53.0729 111.236 51.7566 110.364 50.071C109.493 48.3759 109.058 46.411 109.058 44.1761C109.058 41.9223 109.493 39.9527 110.364 38.267C111.236 36.572 112.471 35.2557 114.072 34.3182C115.682 33.3712 117.59 32.8977 119.796 32.8977C122.003 32.8977 123.906 33.3712 125.506 34.3182C127.116 35.2557 128.357 36.572 129.228 38.267C130.099 39.9527 130.535 41.9223 130.535 44.1761C130.535 46.411 130.099 48.3759 129.228 50.071C128.357 51.7566 127.116 53.0729 125.506 54.0199C123.906 54.9574 122.003 55.4261 119.796 55.4261ZM119.825 50.7386C120.828 50.7386 121.666 50.4545 122.339 49.8864C123.011 49.3087 123.518 48.5227 123.859 47.5284C124.209 46.5341 124.384 45.4025 124.384 44.1335C124.384 42.8646 124.209 41.733 123.859 40.7386C123.518 39.7443 123.011 38.9583 122.339 38.3807C121.666 37.803 120.828 37.5142 119.825 37.5142C118.811 37.5142 117.959 37.803 117.268 38.3807C116.586 38.9583 116.07 39.7443 115.719 40.7386C115.379 41.733 115.208 42.8646 115.208 44.1335C115.208 45.4025 115.379 46.5341 115.719 47.5284C116.07 48.5227 116.586 49.3087 117.268 49.8864C117.959 50.4545 118.811 50.7386 119.825 50.7386ZM144.327 55.4261C142.093 55.4261 140.17 54.9527 138.56 54.0057C136.96 53.0492 135.729 51.7235 134.867 50.0284C134.015 48.3333 133.589 46.3826 133.589 44.1761C133.589 41.9413 134.02 39.9811 134.881 38.2955C135.753 36.6004 136.988 35.2794 138.589 34.3324C140.189 33.3759 142.093 32.8977 144.299 32.8977C146.202 32.8977 147.869 33.2434 149.299 33.9347C150.729 34.6259 151.861 35.5966 152.694 36.8466C153.527 38.0966 153.987 39.5644 154.072 41.25H148.362C148.201 40.161 147.774 39.285 147.083 38.6222C146.401 37.9498 145.506 37.6136 144.398 37.6136C143.461 37.6136 142.642 37.8693 141.941 38.3807C141.25 38.8826 140.71 39.6165 140.322 40.5824C139.933 41.5483 139.739 42.7178 139.739 44.0909C139.739 45.483 139.929 46.6667 140.308 47.642C140.696 48.6174 141.24 49.3608 141.941 49.8722C142.642 50.3835 143.461 50.6392 144.398 50.6392C145.09 50.6392 145.71 50.4972 146.259 50.2131C146.818 49.929 147.277 49.517 147.637 48.9773C148.006 48.428 148.248 47.7699 148.362 47.0028H154.072C153.977 48.6695 153.522 50.1373 152.708 51.4062C151.903 52.6657 150.79 53.6506 149.37 54.3608C147.95 55.071 146.269 55.4261 144.327 55.4261ZM163.429 48.7216L163.443 41.4631H164.324L171.312 33.1818H178.259L168.869 44.1477H167.435L163.429 48.7216ZM157.946 55V25.9091H163.997V55H157.946ZM171.582 55L165.162 45.4972L169.196 41.2216L178.67 55H171.582ZM208.567 25.9091H214.718V44.8011C214.718 46.9223 214.211 48.7784 213.198 50.3693C212.194 51.9602 210.788 53.2008 208.979 54.0909C207.171 54.9716 205.064 55.4119 202.658 55.4119C200.244 55.4119 198.132 54.9716 196.323 54.0909C194.514 53.2008 193.108 51.9602 192.104 50.3693C191.101 48.7784 190.599 46.9223 190.599 44.8011V25.9091H196.749V44.2756C196.749 45.3835 196.991 46.3684 197.474 47.2301C197.966 48.0919 198.657 48.7689 199.548 49.2614C200.438 49.7538 201.475 50 202.658 50C203.852 50 204.888 49.7538 205.769 49.2614C206.659 48.7689 207.346 48.0919 207.829 47.2301C208.321 46.3684 208.567 45.3835 208.567 44.2756V25.9091ZM219.665 63.1818V33.1818H225.631V36.8466H225.901C226.166 36.2595 226.549 35.6629 227.051 35.0568C227.563 34.4413 228.225 33.9299 229.04 33.5227C229.864 33.1061 230.886 32.8977 232.108 32.8977C233.699 32.8977 235.167 33.3144 236.511 34.1477C237.856 34.9716 238.931 36.2169 239.736 37.8835C240.541 39.5407 240.943 41.6193 240.943 44.1193C240.943 46.553 240.55 48.608 239.764 50.2841C238.988 51.9508 237.927 53.215 236.582 54.0767C235.247 54.929 233.751 55.3551 232.094 55.3551C230.92 55.3551 229.92 55.161 229.097 54.7727C228.282 54.3845 227.615 53.8968 227.094 53.3097C226.573 52.7131 226.175 52.1117 225.901 51.5057H225.716V63.1818H219.665ZM225.588 44.0909C225.588 45.3883 225.768 46.5199 226.128 47.4858C226.488 48.4517 227.009 49.2045 227.69 49.7443C228.372 50.2746 229.201 50.5398 230.176 50.5398C231.161 50.5398 231.994 50.2699 232.676 49.7301C233.358 49.1809 233.874 48.4233 234.224 47.4574C234.584 46.482 234.764 45.3598 234.764 44.0909C234.764 42.8314 234.589 41.7235 234.239 40.767C233.888 39.8106 233.372 39.0625 232.69 38.5227C232.009 37.983 231.17 37.7131 230.176 37.7131C229.191 37.7131 228.358 37.9735 227.676 38.4943C227.004 39.0152 226.488 39.7538 226.128 40.7102C225.768 41.6667 225.588 42.7936 225.588 44.0909ZM264.661 55H254.349V25.9091H264.746C267.673 25.9091 270.192 26.4915 272.303 27.6562C274.415 28.8116 276.039 30.4735 277.175 32.642C278.321 34.8106 278.894 37.4053 278.894 40.4261C278.894 43.4564 278.321 46.0606 277.175 48.2386C276.039 50.4167 274.406 52.0881 272.275 53.2528C270.154 54.4176 267.616 55 264.661 55ZM260.499 49.7301H264.406C266.224 49.7301 267.753 49.4081 268.994 48.7642C270.244 48.1108 271.181 47.1023 271.806 45.7386C272.441 44.3655 272.758 42.5947 272.758 40.4261C272.758 38.2765 272.441 36.5199 271.806 35.1562C271.181 33.7926 270.248 32.7888 269.008 32.1449C267.767 31.5009 266.238 31.179 264.42 31.179H260.499V49.7301ZM293.195 55.4261C290.988 55.4261 289.08 54.9574 287.47 54.0199C285.87 53.0729 284.634 51.7566 283.763 50.071C282.892 48.3759 282.456 46.411 282.456 44.1761C282.456 41.9223 282.892 39.9527 283.763 38.267C284.634 36.572 285.87 35.2557 287.47 34.3182C289.08 33.3712 290.988 32.8977 293.195 32.8977C295.401 32.8977 297.304 33.3712 298.905 34.3182C300.515 35.2557 301.755 36.572 302.626 38.267C303.498 39.9527 303.933 41.9223 303.933 44.1761C303.933 46.411 303.498 48.3759 302.626 50.071C301.755 51.7566 300.515 53.0729 298.905 54.0199C297.304 54.9574 295.401 55.4261 293.195 55.4261ZM293.223 50.7386C294.227 50.7386 295.065 50.4545 295.737 49.8864C296.41 49.3087 296.916 48.5227 297.257 47.5284C297.607 46.5341 297.783 45.4025 297.783 44.1335C297.783 42.8646 297.607 41.733 297.257 40.7386C296.916 39.7443 296.41 38.9583 295.737 38.3807C295.065 37.803 294.227 37.5142 293.223 37.5142C292.21 37.5142 291.357 37.803 290.666 38.3807C289.984 38.9583 289.468 39.7443 289.118 40.7386C288.777 41.733 288.607 42.8646 288.607 44.1335C288.607 45.4025 288.777 46.5341 289.118 47.5284C289.468 48.5227 289.984 49.3087 290.666 49.8864C291.357 50.4545 292.21 50.7386 293.223 50.7386ZM311.625 55L305.688 33.1818H311.81L315.19 47.8409H315.389L318.912 33.1818H324.92L328.5 47.7557H328.685L332.009 33.1818H338.116L332.193 55H325.787L322.037 41.2784H321.767L318.017 55H311.625ZM347.396 42.3864V55H341.344V33.1818H347.112V37.0312H347.367C347.85 35.7623 348.66 34.7585 349.796 34.0199C350.933 33.2718 352.31 32.8977 353.93 32.8977C355.445 32.8977 356.766 33.2292 357.893 33.892C359.02 34.5549 359.896 35.5019 360.521 36.733C361.146 37.9545 361.458 39.4129 361.458 41.108V55H355.407V42.1875C355.416 40.8523 355.076 39.8106 354.384 39.0625C353.693 38.3049 352.741 37.9261 351.529 37.9261C350.715 37.9261 349.995 38.1013 349.37 38.4517C348.754 38.8021 348.272 39.3134 347.921 39.9858C347.58 40.6487 347.405 41.4489 347.396 42.3864Z" fill="#424242"/>
</svg>
